:SAMPLES-PER-SECOND 30
:FULLY-SPECIFIED
:DEGREES
178
root  40.1481 33.5511 -65.6459 -1.00447 -47.3628 -0.355538
RightUpLeg  -4.43319 0.0428315 0.861171
RightLeg  15.5816 -6.6913 -1.4048
RightFoot  -0.382835 -0.0486174 0.0176091
RightToes  -23.1957 -0.077092 -0.174103
Spine  4.92586 -2.04289 0.414626
Spine1  9.15705 -3.97835 0.234976
HEad  13.9808 0.185466 8.46602
LeftShoulder1  0 -2.42657e-020 -4.95415e-022
LeftArm  17.4289 8.16438 -78.3068
LeftForeArm  48.8083 -70.9341 -30.8955
LeftHand  -0.0707066 -0.615797 12.8811
RightShoulder  0 2.42657e-020 1.07489e-018
RightArm  15.3911 -19.8521 64.137
RightForeArm  152.012 76.4269 132.188
RightHand  -4.85368 14.0916 -37.5
LeftUpLeg  -4.08104 3.73042 3.15443
LeftLeg  18.2552 -1.51938 -0.397108
LeftFoot  -2.24706 -0.00824583 0.0123444
LeftToes  -13.6583 8.72033e-007 1.17809e-007
179
root  40.1583 33.5512 -65.6412 -1.00082 -47.377 -0.359967
RightUpLeg  -4.43637 0.0883635 0.851525
RightLeg  15.5697 -6.72728 -1.41084
RightFoot  -0.360114 -0.0485647 0.0154962
RightToes  -23.2899 -0.0774913 -0.174577
Spine  4.93208 -2.04882 0.415245
Spine1  9.16911 -3.99107 0.235463
HEad  13.9634 0.215778 8.49017
LeftShoulder1  0 -2.42657e-020 -4.95415e-022
LeftArm  17.3843 8.17396 -78.325
LeftForeArm  48.8228 -70.93 -30.8875
LeftHand  -0.0713689 -0.60637 12.8786
RightShoulder  0 2.42657e-020 1.07489e-018
RightArm  15.3762 -19.8786 64.2063
RightForeArm  151.983 76.4397 132.126
RightHand  -4.8783 14.1179 -37.6121
LeftUpLeg  -4.08847 3.70599 3.13875
LeftLeg  18.2601 -1.48607 -0.38859
LeftFoot  -2.24185 -0.00842186 0.0124203
LeftToes  -13.665 8.72033e-007 1.17809e-007
180
root  40.1662 33.5513 -65.6351 -1.00186 -47.3908 -0.366297
RightUpLeg  -4.44255 0.0879991 0.838212
RightLeg  15.5759 -6.71441 -1.40892
RightFoot  -0.351343 -0.0484766 0.0132012
RightToes  -23.2979 -0.0779254 -0.175096
Spine  4.93745 -2.05521 0.415415
Spine1  9.17975 -4.00388 0.235184
HEad  13.9626 0.234938 8.47569
LeftShoulder1  0 -2.42657e-020 -4.95415e-022
LeftArm  17.3293 8.2018 -78.3286
LeftForeArm  48.8486 -70.9295 -30.9036
LeftHand  -0.0692569 -0.623339 12.9589
RightShoulder  0 2.42657e-020 1.07489e-018
RightArm  15.3486 -19.8869 64.278
RightForeArm  151.947 76.4479 132.087
RightHand  -4.87279 14.104 -37.6073
LeftUpLeg  -4.09351 3.73023 3.12886
LeftLeg  18.2783 -1.50477 -0.393962
LeftFoot  -2.27037 -0.00858812 0.0124857
LeftToes  -13.5561 8.72033e-007 1.17809e-007
181
root  40.1784 33.5514 -65.6286 -1.00467 -47.405 -0.369391
RightUpLeg  -4.45544 0.0930453 0.817679
RightLeg  15.5929 -6.7159 -1.41218
RightFoot  -0.319266 -0.048332 0.0104051
RightToes  -23.4047 -0.0783951 -0.175658
Spine  4.94873 -2.06122 0.414999
Spine1  9.2016 -4.01555 0.234342
HEad  14.012 0.21796 8.41
LeftShoulder1  0 -2.42657e-020 -4.95415e-022
LeftArm  17.2767 8.20152 -78.3265
LeftForeArm  48.8819 -70.9256 -30.8938
LeftHand  -0.0691296 -0.585105 12.9781
RightShoulder  0 2.42657e-020 1.07489e-018
RightArm  15.3218 -19.8657 64.3346
RightForeArm  151.862 76.4646 132.006
RightHand  -4.86969 14.1043 -37.584
LeftUpLeg  -4.1053 3.70568 3.10882
LeftLeg  18.3086 -1.47033 -0.385833
LeftFoot  -2.27919 -0.00874438 0.012542
LeftToes  -13.6087 8.72033e-007 1.17809e-007
182
root  40.1918 33.5514 -65.6209 -1.00811 -47.4322 -0.371734
RightUpLeg  -4.46451 0.12919 0.798772
RightLeg  15.5975 -6.71589 -1.41787
RightFoot  -0.286309 -0.0480889 0.00646039
RightToes  -23.5385 -0.0789009 -0.176266
Spine  4.95117 -2.06299 0.41386
Spine1  9.20614 -4.01886 0.233142
HEad  13.892 0.248977 8.40991
LeftShoulder1  0 -2.42657e-020 -4.95415e-022
LeftArm  17.2502 8.21376 -78.3297
LeftForeArm  48.8648 -70.9219 -30.8716
LeftHand  -0.0699497 -0.593141 12.9865
RightShoulder  0 2.42657e-020 1.07489e-018
RightArm  15.3447 -19.8396 64.3611
RightForeArm  151.843 76.4814 131.925
RightHand  -4.88916 14.1367 -37.6432
LeftUpLeg  -4.10371 3.67708 3.08542
LeftLeg  18.3135 -1.43738 -0.377369
LeftFoot  -2.30525 -0.00889044 0.0125905
LeftToes  -13.5281 8.72033e-007 1.17809e-007
183
root  40.2042 33.5515 -65.6114 -1.01688 -47.4475 -0.374124
RightUpLeg  -4.47926 0.154602 0.775607
RightLeg  15.632 -6.7225 -1.41748
RightFoot  -0.296515 -0.0479465 0.00446705
RightToes  -23.5142 -0.0794433 -0.17692
Spine  4.95573 -2.06309 0.411861
Spine1  9.21448 -4.01883 0.230592
HEad  13.7729 0.262483 8.40154
LeftShoulder1  0 -2.42657e-020 -4.95415e-022
LeftArm  17.2176 8.23652 -78.3416
LeftForeArm  48.8915 -70.9277 -30.8828
LeftHand  -0.0733132 -0.616221 12.9355
RightShoulder  0 2.42657e-020 1.07489e-018
RightArm  15.3436 -19.8581 64.3631
RightForeArm  151.995 76.4526 132.064
RightHand  -4.88572 14.1301 -37.6349
LeftUpLeg  -4.10482 3.69591 3.06121
LeftLeg  18.3299 -1.42896 -0.375612
LeftFoot  -2.31936 -0.00902609 0.0126325
LeftToes  -13.4966 8.72033e-007 1.17809e-007
184
root  40.2153 33.5515 -65.6022 -1.02059 -47.4535 -0.375892
RightUpLeg  -4.49405 0.109067 0.748254
RightLeg  15.6583 -6.67585 -1.4109
RightFoot  -0.301869 -0.047835 0.00334948
RightToes  -23.501 -0.0800231 -0.17762
Spine  4.96232 -2.06203 0.407218
Spine1  9.22719 -4.01652 0.222726
HEad  13.6335 0.255429 8.38782
LeftShoulder1  0 -2.42657e-020 -4.95415e-022
LeftArm  17.2215 8.2575 -78.325
LeftForeArm  48.9622 -70.9628 -30.9513
LeftHand  -0.0721107 -0.621713 13.0062
RightShoulder  0 2.42657e-020 1.07489e-018
RightArm  15.333 -19.8692 64.3861
RightForeArm  152.092 76.4368 132.141
RightHand  -4.88651 14.1168 -37.6743
LeftUpLeg  -4.09516 3.75991 3.04644
LeftLeg  18.3166 -1.4849 -0.389856
LeftFoot  -2.33145 -0.00915111 0.0126693
LeftToes  -13.4584 8.72033e-007 1.17809e-007
185
root  40.2289 33.5516 -65.5938 -1.02223 -47.4608 -0.376365
RightUpLeg  -4.49636 0.0945686 0.721378
RightLeg  15.6415 -6.64727 -1.40285
RightFoot  -0.275265 -0.0477086 0.00240112
RightToes  -23.5185 -0.0806407 -0.178367
Spine  4.96483 -2.06034 0.400714
Spine1  9.24092 -4.01297 0.208002
HEad  13.492 0.279575 8.40607
LeftShoulder1  0 -2.42657e-020 -4.95415e-022
LeftArm  17.1835 8.27016 -78.3564
LeftForeArm  48.9379 -70.9431 -30.9129
LeftHand  -0.0737327 -0.63431 13.0323
RightShoulder  0 2.42657e-020 1.07489e-018
RightArm  15.3533 -19.8473 64.3852
RightForeArm  152.085 76.4525 132.064
RightHand  -4.88847 14.1178 -37.686
LeftUpLeg  -4.08926 3.71918 3.01358
LeftLeg  18.2909 -1.4389 -0.377157
LeftFoot  -2.33033 -0.0092653 0.0127021
LeftToes  -13.3785 8.72033e-007 1.17809e-007
